<?xml version="1.0" encoding="UTF-8" standalone="no"?>
<!-- Created with Inkscape (http://www.inkscape.org/) -->

<svg
   width="178.85834mm"
   height="26.72295mm"
   viewBox="0 0 178.85834 26.72295"
   version="1.1"
   id="svg1"
   xml:space="preserve"
   inkscape:version="1.3.2 (091e20e, 2023-11-25, custom)"
   sodipodi:docname="logo.svg"
   xmlns:inkscape="http://www.inkscape.org/namespaces/inkscape"
   xmlns:sodipodi="http://sodipodi.sourceforge.net/DTD/sodipodi-0.dtd"
   xmlns="http://www.w3.org/2000/svg"
   xmlns:svg="http://www.w3.org/2000/svg"><sodipodi:namedview
     id="namedview1"
     pagecolor="#ffffff"
     bordercolor="#000000"
     borderopacity="0.25"
     inkscape:showpageshadow="2"
     inkscape:pageopacity="0.0"
     inkscape:pagecheckerboard="0"
     inkscape:deskcolor="#d1d1d1"
     inkscape:document-units="mm"
     inkscape:zoom="0.97890839"
     inkscape:cx="527.62854"
     inkscape:cy="29.114062"
     inkscape:window-width="1920"
     inkscape:window-height="991"
     inkscape:window-x="2391"
     inkscape:window-y="-9"
     inkscape:window-maximized="1"
     inkscape:current-layer="layer1" /><defs
     id="defs1" /><g
     inkscape:label="Katman 1"
     inkscape:groupmode="layer"
     id="layer1"
     transform="translate(59.795837,-202.40091)"><rect
       style="fill:#ffffff;stroke-width:2.096;stroke-linecap:square"
       id="rect1"
       width="178.85834"
       height="26.722937"
       x="-59.795837"
       y="202.40091" /><path
       style="fill:#000000"
       d="m -59.795836,215.76239 v -13.36146 h 4.497917 4.497917 v 2.64584 2.64583 h 1.5875 1.5875 v 2.63263 2.63263 l -1.521354,0.0793 -1.521354,0.0794 v 2.64583 2.64584 l 1.521354,0.0794 1.521354,0.0793 v 2.63263 2.63263 h -1.5875 -1.5875 v 2.64584 2.64583 h -4.497917 -4.497917 z m 8.995834,5.42396 v -2.64583 h -2.910417 -2.910417 v 2.64583 2.64583 h 2.910417 2.910417 z m 0,-10.84792 v -2.64583 h -2.910417 -2.910417 v 2.64583 2.64584 h 2.910417 2.910417 z m 11.90625,16.13959 v -2.64584 h -1.455208 -1.455208 v -10.71562 -10.71563 h 1.455208 1.455208 v 10.71563 10.71562 h 4.497917 4.497917 v -10.71562 -10.71563 h 1.455208 1.455209 v 10.71563 10.71562 h -1.455209 -1.455208 v 2.64584 2.64583 h -4.497917 -4.497917 z m 17.991668,-10.71563 v -13.36146 h 1.455208 1.455208 v 13.36146 13.36146 h -1.455208 -1.455208 z m 8.73125,0 v -13.36146 h 1.5875 1.5875 v 10.71563 10.71562 H -4.497917 0 v 2.64584 2.64583 h -6.085417 -6.085417 z m 17.991667,0 v -13.36146 h 4.497917 4.497917 v 2.64584 2.64583 h 1.455208 1.455209 v 8.06979 8.06979 h -1.455209 -1.455208 v 2.64584 2.64583 H 10.31875 5.820833 Z m 8.995834,-0.009 v -8.07846 l -2.976563,0.0748 -2.976562,0.0748 -0.07031,7.6697 c -0.03867,4.21833 -0.01264,7.81997 0.05784,8.00364 0.09246,0.24096 0.940955,0.33395 3.046869,0.33395 h 2.918721 z m 8.73125,0.009 v -13.36146 h 6.085415 6.08542 v 2.64584 2.64583 h -4.49791 -4.49792 v 2.63944 2.63943 l 4.43177,0.0725 4.43177,0.0725 v 2.64583 2.64584 l -4.43177,0.0725 -4.43177,0.0725 v 2.63944 2.63943 h 4.49792 4.49791 v 2.64584 2.64583 h -6.08542 -6.085416 z m 17.991675,0 v -13.36146 h 5.95312 5.95313 v 5.29167 5.29167 h -1.45521 -1.45521 v 2.77812 2.77813 h 1.45521 1.45521 v 5.29166 5.29167 h -1.45521 -1.45521 v -5.29167 -5.29166 h -3.04271 -3.04271 v 5.29166 5.29167 h -1.45521 -1.4552 z m 8.99583,-5.43262 v -2.6545 l -2.97656,0.0748 -2.97657,0.0748 -0.0757,2.57969 -0.0757,2.57969 h 3.05229 3.05229 z m 8.73125,16.14825 v -2.64584 h 3.04271 3.04271 v 2.64584 2.64583 h -3.04271 -3.04271 z m 11.90625,-10.71563 v -13.36146 h 6.08542 6.08541 v 2.64584 2.64583 h -4.49791 -4.49792 v 8.06979 8.06979 h 4.49792 4.49791 v 2.64584 2.64583 h -6.08541 -6.08542 z m 17.99167,10.71563 v -2.64584 h 4.49791 4.49792 v -2.63716 -2.63717 l -2.97656,-0.0748 -2.97656,-0.0748 -0.0754,-2.71198 -0.0754,-2.71198 h -1.44595 -1.44595 v -5.29167 -5.29167 h 5.95312 5.953128 v 2.63944 2.63944 l -4.431768,0.0725 -4.43177,0.0725 -0.0756,2.57094 -0.0756,2.57093 2.98604,0.0749 2.98604,0.0749 0.0754,2.71198 0.0754,2.71198 h 1.44595 1.445958 v 5.29166 5.29167 h -5.953128 -5.95312 z m 17.727078,0 v -2.64584 h 4.49792 4.49791 v -2.64583 -2.64583 h -2.90116 -2.90116 l -0.0754,-2.71198 -0.0754,-2.71198 -1.52135,-0.0794 -1.52136,-0.0793 v -5.27846 -5.27847 h 6.08542 6.08541 v 2.64584 2.64583 h -4.49791 -4.49792 v 2.64583 2.64584 h 2.90116 2.90116 l 0.0754,2.71198 0.0754,2.71198 1.52135,0.0794 1.52135,0.0793 v 5.27847 5.27846 h -6.08541 -6.08542 z"
       id="path1" /></g></svg>
